<svg width="24" height="24" viewBox="0 0 24 24" fill="none" xmlns="http://www.w3.org/2000/svg">
  <path fill-rule="evenodd" clip-rule="evenodd"
    d="M22.5303 2.53033C22.8232 2.23744 22.8232 1.76256 22.5303 1.46967C22.2374 1.17678 21.7626 1.17678 21.4697 1.46967L17.9808 4.95857C16.183 3.68492 14.1337 2.98001 12 2.98001C8.15202 2.98001 4.64841 5.24861 2.25749 9.00698C1.71229 9.86139 1.465 10.956 1.465 12.005C1.465 13.054 1.71229 14.1486 2.25746 15.003C3.01278 16.1886 3.88592 17.2323 4.84013 18.0992L1.46967 21.4697C1.17678 21.7626 1.17678 22.2374 1.46967 22.5303C1.76256 22.8232 2.23744 22.8232 2.53033 22.5303L9.99773 15.0629L10.0003 15.0603L15.0603 10.0003C15.0612 9.99948 15.0621 9.99861 15.0629 9.99774L22.5303 2.53033ZM14.4843 8.45502L16.9025 6.03682C15.3877 5.01888 13.7128 4.48001 12 4.48001C8.78814 4.48001 5.71189 6.37121 3.52281 9.81255L3.52219 9.81354C3.1676 10.3691 2.965 11.1643 2.965 12.005C2.965 12.8458 3.1676 13.641 3.52219 14.1965C4.22576 15.3008 5.03339 16.2574 5.90216 17.0372L8.45501 14.4843C7.96046 13.7816 7.67 12.9266 7.67 12C7.67 9.6058 9.60578 7.67001 12 7.67001C12.9265 7.67001 13.7816 7.96048 14.4843 8.45502ZM9.17 12C9.17 10.4342 10.4342 9.17001 12 9.17001C12.5104 9.17001 12.9865 9.30394 13.399 9.54031L9.54029 13.3991C9.30393 12.9865 9.17 12.5104 9.17 12Z"
    fill="currentColor" />
  <path
    d="M19.5799 7.34558C19.9027 7.08597 20.3748 7.13716 20.6344 7.45992C21.0183 7.93719 21.3954 8.45004 21.7432 8.99812C22.2879 9.85237 22.535 10.9464 22.535 11.995C22.535 13.044 22.2877 14.1386 21.7425 14.993C19.3516 18.7514 15.848 21.02 12 21.02C10.6635 21.02 9.35482 20.7374 8.12896 20.2212C7.7472 20.0605 7.56803 19.6207 7.72877 19.239C7.88951 18.8572 8.32929 18.678 8.71104 18.8388C9.76517 19.2826 10.8765 19.52 12 19.52C15.2119 19.52 18.2881 17.6288 20.4772 14.1875L20.4778 14.1865C20.8324 13.6309 21.035 12.8357 21.035 11.995C21.035 11.1542 20.8324 10.359 20.4778 9.80352L20.4768 9.80186C20.1646 9.30994 19.8217 8.84279 19.4656 8.40006C19.206 8.0773 19.2572 7.60519 19.5799 7.34558Z"
    fill="currentColor" />
  <path
    d="M16.2476 12.836C16.3227 12.4287 16.0534 12.0376 15.646 11.9624C15.2387 11.8873 14.8476 12.1567 14.7724 12.564C14.5688 13.6682 13.6581 14.5788 12.554 14.7824C12.1467 14.8576 11.8773 15.2487 11.9524 15.656C12.0276 16.0634 12.4187 16.3327 12.826 16.2576C14.5419 15.9412 15.9312 14.5519 16.2476 12.836Z"
    fill="currentColor" />
</svg>