<svg width="24" height="24" viewBox="0 0 24 24" fill="none" xmlns="http://www.w3.org/2000/svg">
  <path fill-rule="evenodd" clip-rule="evenodd"
    d="M12 7.67001C9.60578 7.67001 7.66999 9.6058 7.66999 12C7.66999 14.3942 9.60578 16.33 12 16.33C14.3942 16.33 16.33 14.3942 16.33 12C16.33 9.6058 14.3942 7.67001 12 7.67001ZM9.16999 12C9.16999 10.4342 10.4342 9.17001 12 9.17001C13.5658 9.17001 14.83 10.4342 14.83 12C14.83 13.5658 13.5658 14.83 12 14.83C10.4342 14.83 9.16999 13.5658 9.16999 12Z"
    fill="currentColor" />
  <path fill-rule="evenodd" clip-rule="evenodd"
    d="M12 2.97C8.15202 2.97 4.64841 5.2386 2.25749 8.99697C1.71229 9.85138 1.465 10.946 1.465 11.995C1.465 13.0438 1.7122 14.1382 2.25718 14.9925C4.6481 18.7512 8.15185 21.02 12 21.02C15.8481 21.02 19.3519 18.7512 21.7428 14.9925C22.2878 14.1382 22.535 13.0438 22.535 11.995C22.535 10.9462 22.2878 9.8518 21.7428 8.99746C19.3519 5.2388 15.8481 2.97 12 2.97ZM3.52281 9.80254C5.71189 6.3612 8.78814 4.47 12 4.47C15.2118 4.47 18.2881 6.3612 20.4772 9.80254L20.4778 9.80353C20.8324 10.359 21.035 11.1542 21.035 11.995C21.035 12.8358 20.8324 13.631 20.4778 14.1865L20.4772 14.1875C18.2881 17.6288 15.2118 19.52 12 19.52C8.78814 19.52 5.71189 17.6288 3.52282 14.1875L3.52219 14.1865C3.1676 13.631 2.965 12.8358 2.965 11.995C2.965 11.1542 3.1676 10.359 3.52219 9.80353L3.52281 9.80254Z"
    fill="currentColor" />
</svg>